<?xml version="1.0" encoding="UTF-8" standalone="no"?>
<svg width="18px" height="19px" viewBox="0 0 18 19" version="1.1" xmlns="http://www.w3.org/2000/svg" xmlns:xlink="http://www.w3.org/1999/xlink">
    <!-- Generator: Sketch 3.7 (28169) - http://www.bohemiancoding.com/sketch -->
    <title>chatlines</title>
    <desc>Created with Sketch.</desc>
    <defs></defs>
    <g id="Page-1" stroke="none" stroke-width="1" fill="none" fill-rule="evenodd">
        <g id="680x680-set-2" transform="translate(-529.000000, -503.000000)" fill="#6342B1">
            <g id="Row-7" transform="translate(51.000000, 480.000000)">
                <path d="M485.492522,23.1247299 C481.770037,23.7393052 478.766514,26.7844886 478.133367,30.5678014 C477.732548,32.9653907 478.25895,35.2170583 479.393382,37.0394818 C479.62571,37.4133396 479.719897,37.8585606 479.615245,38.2878047 L478.861747,41.376658 C478.760235,41.7888602 479.178844,42.1339597 479.554546,41.9486285 L482.23888,40.6236169 C482.650164,40.4212437 483.123192,40.4340252 483.544941,40.6140308 C485.084378,41.2690807 486.837305,41.507668 488.677094,41.1636337 C492.365044,40.4723696 495.308916,37.4069489 495.886597,33.6353524 C496.842073,27.4054547 491.619919,22.1128642 485.492522,23.1247299 L485.492522,23.1247299 Z M488.763956,35.3161147 L483.691455,35.3161147 C483.183891,35.3161147 482.772607,34.8975218 482.772607,34.3809377 C482.772607,33.8643536 483.183891,33.4446956 483.691455,33.4446956 L488.763956,33.4446956 C489.27152,33.4446956 489.682804,33.8643536 489.682804,34.3809377 C489.682804,34.8975218 489.27152,35.3161147 488.763956,35.3161147 L488.763956,35.3161147 Z M490.775374,31.5583648 L483.691455,31.5583648 C483.183891,31.5583648 482.772607,31.1397719 482.772607,30.6231878 C482.772607,30.1066037 483.183891,29.6880108 483.691455,29.6880108 L490.775374,29.6880108 C491.282938,29.6880108 491.694222,30.1066037 491.694222,30.6231878 C491.694222,31.1397719 491.282938,31.5583648 490.775374,31.5583648 L490.775374,31.5583648 Z" id="chatlines"></path>
            </g>
        </g>
    </g>
</svg>