<?xml version="1.0" encoding="UTF-8" standalone="no"?>
<svg width="32px" height="32px" viewBox="0 0 32 32" version="1.1" xmlns="http://www.w3.org/2000/svg" xmlns:xlink="http://www.w3.org/1999/xlink">
    <!-- Generator: Sketch 3.7 (28169) - http://www.bohemiancoding.com/sketch -->
    <title>checkocircle</title>
    <desc>Created with Sketch.</desc>
    <defs></defs>
    <g id="Page-1" stroke="none" stroke-width="1" fill="none" fill-rule="evenodd">
        <g id="680x680" transform="translate(-524.000000, -124.000000)" fill="#6342B1">
            <g id="Row-2" transform="translate(50.000000, 124.000000)">
                <path d="M490,0 C481.162925,0 474,7.1642037 474,15.9991761 C474,24.8357963 481.162925,32 490,32 C498.837075,32 506,24.8357963 506,15.9991761 C506,7.1642037 498.837075,0 490,0 L490,0 Z M490.077565,28.8 C483.008871,28.8 477.2784,23.0695295 477.2784,15.9991647 C477.2784,8.93047053 483.008871,3.2 490.077565,3.2 C497.147929,3.2 502.8784,8.93047053 502.8784,15.9991647 C502.8784,23.0695295 497.147929,28.8 490.077565,28.8 Z M484.070698,17.1997091 C483.443101,16.590947 483.443101,15.6026037 484.070698,14.9924092 C484.720394,14.3621614 485.735451,14.3621614 486.363048,14.9709235 L488.29593,16.8516404 L493.639346,11.6563927 C494.26547,11.0476306 495.282,11.0476306 495.908124,11.6578251 C496.556347,12.2895053 496.556347,13.2764162 495.930223,13.8851783 L489.187236,20.4411884 C488.695176,20.9196039 487.896684,20.9196039 487.404624,20.4411884 L484.070698,17.1997091 Z" id="checkocircle"></path>
            </g>
        </g>
    </g>
</svg>