<?xml version="1.0" encoding="UTF-8" standalone="no"?>
<svg width="29px" height="33px" viewBox="0 0 29 33" version="1.1" xmlns="http://www.w3.org/2000/svg" xmlns:xlink="http://www.w3.org/1999/xlink">
    <!-- Generator: Sketch 3.7 (28169) - http://www.bohemiancoding.com/sketch -->
    <title>checkclipboard</title>
    <desc>Created with Sketch.</desc>
    <defs></defs>
    <g id="Page-1" stroke="none" stroke-width="1" fill="none" fill-rule="evenodd">
        <g id="680x680-set-4" transform="translate(-285.000000, -124.000000)" fill="#231F1F">
            <g id="Row-2" transform="translate(51.000000, 128.000000)">
                <path d="M253.527158,2.74057391 C252.467579,2.47696882 251.730737,1.62311755 251.730737,0.560101364 L251.730737,-0.326700545 C251.730737,-2.13898555 250.220211,-3.60743782 248.356,-3.60743782 L248.288211,-3.60743782 C246.425474,-3.60743782 244.914947,-2.13898555 244.914947,-0.326700545 L244.914947,0.568697182 C244.914947,1.62455018 244.184,2.47696882 243.131789,2.74487182 C241.762737,3.09013718 240.753263,4.37377936 240.753263,5.81357891 L240.753263,5.85369273 C240.753263,6.38949873 241.199789,6.82358755 241.750947,6.82358755 L254.921263,6.82358755 C255.472421,6.82358755 255.918947,6.38949873 255.918947,5.85369273 L255.918947,5.81357891 C255.918947,4.36948145 254.902105,3.082974 253.527158,2.74057391 L253.527158,2.74057391 Z M248.336842,0.711960818 C247.772421,0.711960818 247.315579,0.267843545 247.315579,-0.280856182 C247.315579,-0.830988545 247.772421,-1.27510582 248.336842,-1.27510582 C248.901263,-1.27510582 249.358105,-0.830988545 249.358105,-0.280856182 C249.358105,0.267843545 248.901263,0.711960818 248.336842,0.711960818 Z M254.647158,13.4667224 C255.279368,12.8521214 255.279368,11.8550065 254.647158,11.2404055 C254.014947,10.6258045 252.987789,10.6258045 252.355579,11.2404055 L247.020842,16.4265491 L245.071158,14.5311712 C244.438947,13.9151375 243.411789,13.9151375 242.779579,14.5311712 C242.145895,15.1457722 242.145895,16.1428871 242.779579,16.7589207 L246.186737,20.071176 C246.648,20.5181585 247.393684,20.5181585 247.853474,20.071176 L254.647158,13.4667224 Z M254.293439,-1.54545455 L254.293439,-0.0517857374 C254.293439,0.669646136 254.916899,1.25463013 255.685782,1.25463013 L258.359078,1.25463013 C258.872698,1.25463013 259.288854,1.64510332 259.288854,2.12847719 L259.288854,25.3289714 C259.288854,25.8123453 258.872698,26.2028185 258.359078,26.2028185 L238.2057,26.2028185 C237.69208,26.2028185 237.275925,25.8123453 237.275925,25.3289714 L237.275925,2.12847719 C237.275925,1.64510332 237.69208,1.25463013 238.2057,1.25463013 L240.878997,1.25463013 C241.647879,1.25463013 242.271339,0.669646136 242.271339,-0.0517857374 L242.271339,-1.54545455 L236.420408,-1.54545455 C235.238464,-1.54545455 234.280842,-0.646930744 234.280842,0.46207117 L234.280842,26.9924743 C234.280842,28.1014762 235.238464,29 236.420408,29 L260.142823,29 C261.32322,29 262.280842,28.1014762 262.280842,26.9924743 L262.280842,0.46207117 C262.280842,-0.646930744 261.32322,-1.54545455 260.142823,-1.54545455 L254.293439,-1.54545455 Z" id="checkclipboard"></path>
            </g>
        </g>
    </g>
</svg>