<?xml version="1.0" encoding="UTF-8" standalone="no"?>
<svg width="17px" height="22px" viewBox="0 0 17 22" version="1.1" xmlns="http://www.w3.org/2000/svg" xmlns:xlink="http://www.w3.org/1999/xlink">
    <!-- Generator: Sketch 3.7 (28169) - http://www.bohemiancoding.com/sketch -->
    <title>unlocked</title>
    <desc>Created with Sketch.</desc>
    <defs></defs>
    <g id="Page-1" stroke="none" stroke-width="1" fill="none" fill-rule="evenodd">
        <g id="680x680-set-2" transform="translate(-132.000000, -68.000000)" fill="#6342B1">
            <g id="Row-1" transform="translate(50.000000, 66.000000)">
                <path d="M97.424,11.009 C96.769,10.996 96.549,10.665 96.549,10.26 L96.549,8.936 C96.549,5.105 93.714,2 90.218,2 C86.908,2 84.192,4.445 83.912,8.405 C83.885,8.777 84.197,9.088 84.57,9.088 L85.513,9.088 C85.865,9.088 86.138,8.809 86.17,8.458 C86.405,5.817 88.128,4.284 90.218,4.284 C92.469,4.284 94.294,6.232 94.294,8.635 L94.294,10.26 C94.294,10.674 93.958,11.009 93.544,11.009 L83.003,11.009 C82.449,11.009 82,11.459 82,12.013 L82,22.505 C82,23.06 82.449,23.509 83.003,23.509 L97.465,23.509 C98.019,23.509 98.468,23.06 98.468,22.505 L98.468,12.013 C98.468,11.443 97.994,11.02 97.424,11.009 L97.424,11.009 Z M91.052,17.193 C90.892,17.303 90.803,17.489 90.803,17.682 L90.803,19.198 C90.803,19.528 90.519,19.793 90.182,19.76 C89.889,19.732 89.673,19.469 89.673,19.174 L89.673,17.688 C89.673,17.494 89.583,17.307 89.422,17.198 C89.035,16.935 88.781,16.489 88.786,15.984 C88.794,15.226 89.408,14.588 90.165,14.553 C90.996,14.514 91.682,15.177 91.682,15.999 C91.682,16.495 91.432,16.932 91.052,17.193 L91.052,17.193 Z" id="unlocked"></path>
            </g>
        </g>
    </g>
</svg>