<?xml version="1.0" standalone="no"?>
<!DOCTYPE svg PUBLIC "-//W3C//DTD SVG 20010904//EN"
 "http://www.w3.org/TR/2001/REC-SVG-20010904/DTD/svg10.dtd">
<svg version="1.0" xmlns="http://www.w3.org/2000/svg"
 width="700.000000pt" height="700.000000pt" viewBox="0 0 700.000000 700.000000"
 preserveAspectRatio="xMidYMid meet">
<metadata>
Created by potrace 1.11, written by Peter Selinger 2001-2013
</metadata>
<g transform="translate(0.000000,700.000000) scale(0.100000,-0.100000)"
fill="#000000" stroke="none">
<path d="M3275 6994 c-608 -49 -1125 -216 -1626 -526 -221 -136 -388 -268
-592 -468 -593 -578 -935 -1284 -1039 -2140 -17 -137 -17 -583 0 -720 91 -749
365 -1383 833 -1925 84 -98 299 -311 394 -392 454 -383 1026 -654 1610 -762
237 -44 360 -55 640 -55 290 0 430 12 675 60 488 96 955 296 1350 577 304 217
611 522 826 822 303 421 523 952 604 1457 35 222 44 340 44 578 0 238 -9 356
-44 578 -81 505 -301 1036 -604 1457 -215 300 -522 605 -826 822 -466 332
-1013 542 -1610 618 -119 16 -527 27 -635 19z m510 -1360 c415 -72 757 -247
1045 -536 292 -293 470 -649 535 -1073 24 -150 17 -479 -14 -647 -54 -303
-166 -588 -334 -850 -275 -429 -728 -822 -1239 -1075 -149 -74 -208 -93 -288
-93 -88 0 -163 25 -325 108 -329 170 -567 343 -829 600 -432 426 -679 922
-737 1482 -14 135 -7 395 15 520 117 684 581 1239 1236 1478 143 52 276 81
500 106 70 8 347 -4 435 -20z"/>
<path d="M3245 5464 c-514 -78 -951 -365 -1224 -803 -167 -267 -251 -567 -251
-900 0 -504 162 -945 500 -1361 246 -303 636 -609 1008 -791 108 -53 137 -63
193 -67 61 -4 75 -1 163 38 292 128 633 366 887 620 322 321 520 657 624 1058
77 295 79 653 6 937 -154 602 -641 1083 -1249 1235 -197 49 -467 63 -657 34z
m365 -719 c88 -7 198 -38 296 -84 279 -131 465 -357 551 -671 27 -99 24 -367
-5 -472 -128 -463 -541 -767 -1012 -745 -411 20 -765 285 -897 672 -132 388
-4 829 314 1085 116 94 263 167 398 199 63 15 208 29 255 25 19 -2 64 -6 100
-9z"/>
<path d="M3341 4565 c-253 -46 -480 -218 -590 -448 -63 -130 -75 -190 -76
-357 0 -125 3 -155 23 -220 88 -278 284 -474 562 -561 66 -21 94 -24 230 -24
149 1 159 2 250 33 124 43 215 98 307 185 126 120 214 277 243 435 16 90 13
248 -6 333 -20 91 -79 221 -138 302 -179 249 -499 377 -805 322z m350 -96
c126 -35 223 -92 319 -189 144 -144 213 -309 213 -510 0 -130 -18 -204 -79
-329 -79 -160 -234 -297 -403 -356 -133 -47 -285 -56 -418 -24 -87 20 -243
103 -311 165 -119 108 -207 262 -233 408 -19 113 -7 274 28 373 94 262 310
439 588 484 74 12 212 1 296 -22z"/>
<path d="M3335 4341 c-161 -46 -303 -165 -374 -313 -82 -172 -83 -338 -2 -513
96 -205 302 -336 531 -337 112 0 170 13 265 58 209 99 335 300 335 534 0 169
-51 292 -175 415 -86 87 -162 132 -270 160 -79 20 -233 19 -310 -4z"/>
</g>
</svg>
