<?xml version="1.0" encoding="UTF-8" standalone="no"?>
<svg width="734px" height="281px" viewBox="0 0 734 281" version="1.1" xmlns="http://www.w3.org/2000/svg" xmlns:xlink="http://www.w3.org/1999/xlink">
    <!-- Generator: Sketch 3.6.1 (26313) - http://www.bohemiancoding.com/sketch -->
    <title>icontrol_logo</title>
    <desc>Created with Sketch.</desc>
    <defs></defs>
    <g id="brand-style-guide" stroke="none" stroke-width="1" fill="none" fill-rule="evenodd">
        <g id="logo-collection" transform="translate(-172.000000, -162.000000)">
            <g id="icontrol_logo" transform="translate(172.000000, 162.000000)">
                <text id="iControl" font-family="AvenirNext-Bold, Avenir Next" font-size="93.3962264" font-weight="bold" letter-spacing="7.00471687" fill="#444A59">
                    <tspan x="326.622321" y="172.616667">iContro</tspan>
                    <tspan x="712.815716" y="172.616667">l</tspan>
                </text>
                <g>
                    <ellipse id="base" fill="#6342B1" cx="139.980995" cy="140.5" rx="139.980995" ry="140.5"></ellipse>
                    <g id="logo-lines" transform="translate(67.000000, 57.000000)" stroke="#FFFFFF">
                        <path d="M72.4560123,0.334992392 C32.466785,0.386706842 0.0586009329,32.9926678 0.0586009329,72.735223 C0.0586009329,129.621119 51.9727161,158.27351 67.3752654,164.94726 C68.7120319,165.529047 70.1341239,165.821234 71.5510447,165.821234 C71.8535624,165.821234 72.1509089,165.756591 72.4560123,165.728148 C72.7585301,165.756591 73.0558766,165.821234 73.36098,165.821234 C74.7804863,165.821234 76.2025783,165.529047 77.5367592,164.94726 C92.9393085,158.27351 144.853424,129.882276 144.853424,72.735223 C144.853424,32.9926678 112.447825,0.386706842 72.4560123,0.334992392 L72.4560123,0.334992392 Z" id="Path" stroke-width="7.08201334"></path>
                        <path d="M72.4468716,109.274296 C52.3884668,109.274296 36.1279804,93.0127818 36.1279804,72.9563091 C36.1279804,52.9024304 52.3884668,36.6409162 72.4468716,36.6409162 C92.5026822,36.6409162 108.765763,52.9024304 108.765763,72.9563091 C108.765763,93.0127818 92.5026822,109.274296 72.4468716,109.274296 L72.4468716,109.274296 Z" id="Path" stroke-width="7.08201334"></path>
                        <path d="M72.8439663,99.2633907 C58.1693626,99.2633907 46.2691678,87.3639172 46.2691678,72.6902029 C46.2691678,58.0138314 58.1693626,46.1170152 72.8439663,46.1170152 C87.5185701,46.1170152 99.4187648,58.0138314 99.4187648,72.6902029 C99.4187648,87.3639172 87.5185701,99.2633907 72.8439663,99.2633907 L72.8439663,99.2633907 Z" id="Path" stroke-width="5.31151"></path>
                    </g>
                </g>
            </g>
        </g>
    </g>
</svg>